<svg width="253" height="32" viewBox="0 0 253 32" fill="none" xmlns="http://www.w3.org/2000/svg">
<g filter="url(#filter0_d_7_3)">
<path d="M9.824 23.16C9.54667 23.16 9.32267 23.128 9.152 23.064C8.98133 23.0213 8.896 22.936 8.896 22.808C8.896 22.6587 8.98133 22.5413 9.152 22.456C9.32267 22.3707 9.58933 22.296 9.952 22.232C10.7627 22.0827 11.3813 21.7947 11.808 21.368C12.2347 20.92 12.448 20.312 12.448 19.544V14.808C12.448 14.3813 12.3307 13.9227 12.096 13.432C11.8827 12.92 11.7333 12.5893 11.648 12.44L7.904 6.296C7.75467 6.04 7.52 5.688 7.2 5.24C6.88 4.77067 6.528 4.33333 6.144 3.928C5.78133 3.52267 5.41867 3.26667 5.056 3.16C4.71467 3.05333 4.448 2.94667 4.256 2.84C4.08533 2.73333 4 2.60533 4 2.456C4 2.328 4.08533 2.24267 4.256 2.2C4.42667 2.136 4.65067 2.104 4.928 2.104C5.41867 2.104 5.984 2.12533 6.624 2.168C7.264 2.18933 7.94667 2.2 8.672 2.2C9.16267 2.2 9.62133 2.18933 10.048 2.168C10.496 2.14667 10.8907 2.136 11.232 2.136C11.5093 2.136 11.7333 2.168 11.904 2.232C12.0747 2.27467 12.16 2.36 12.16 2.488C12.16 2.63733 12.0747 2.76533 11.904 2.872C11.7333 2.95733 11.4667 3.04267 11.104 3.128C10.8053 3.21333 10.56 3.30933 10.368 3.416C10.176 3.52267 10.08 3.69333 10.08 3.928C10.08 4.20533 10.2187 4.58933 10.496 5.08L13.44 10.52C13.8667 11.3307 14.1653 11.736 14.336 11.736C14.464 11.736 14.6027 11.6507 14.752 11.48C14.9013 11.288 15.1147 10.968 15.392 10.52C15.8827 9.77333 16.32 9.05867 16.704 8.376C17.088 7.69333 17.5467 6.872 18.08 5.912C18.2933 5.54933 18.4427 5.24 18.528 4.984C18.6133 4.70667 18.656 4.472 18.656 4.28C18.656 3.87467 18.5067 3.59733 18.208 3.448C17.9307 3.29867 17.6427 3.20267 17.344 3.16C17.1307 3.11733 16.896 3.04267 16.64 2.936C16.4053 2.808 16.288 2.66933 16.288 2.52C16.288 2.392 16.3733 2.30667 16.544 2.264C16.7147 2.2 16.9387 2.168 17.216 2.168C17.7067 2.168 18.112 2.17867 18.432 2.2C18.752 2.2 19.1467 2.2 19.616 2.2C20.2773 2.2 20.9067 2.18933 21.504 2.168C22.1013 2.12533 22.5813 2.104 22.944 2.104C23.2213 2.104 23.4453 2.136 23.616 2.2C23.7867 2.24267 23.872 2.328 23.872 2.456C23.872 2.60533 23.7013 2.744 23.36 2.872C23.0187 3 22.624 3.128 22.176 3.256C21.6213 3.40533 21.152 3.71467 20.768 4.184C20.4053 4.632 19.936 5.29333 19.36 6.168C18.9333 6.82933 18.5707 7.384 18.272 7.832C17.9947 8.28 17.728 8.696 17.472 9.08C17.2373 9.464 16.992 9.86933 16.736 10.296C16.48 10.7013 16.1707 11.2027 15.808 11.8C15.5307 12.248 15.3387 12.6107 15.232 12.888C15.1253 13.1653 15.0613 13.432 15.04 13.688C15.0187 13.9227 15.008 14.2533 15.008 14.68V19.544C15.008 20.2693 15.232 20.8667 15.68 21.336C16.128 21.784 16.7467 22.0827 17.536 22.232C17.8987 22.296 18.1653 22.3707 18.336 22.456C18.5067 22.5413 18.592 22.6587 18.592 22.808C18.592 22.936 18.5067 23.0213 18.336 23.064C18.1653 23.128 17.9413 23.16 17.664 23.16C17.088 23.16 16.608 23.1387 16.224 23.096C15.8613 23.0747 15.5093 23.0533 15.168 23.032C14.8267 23.0107 14.4107 23 13.92 23C13.3867 23 12.9173 23.0107 12.512 23.032C12.128 23.0533 11.7227 23.0747 11.296 23.096C10.8907 23.1387 10.4 23.16 9.824 23.16ZM23.0565 23.448C22.6725 23.448 22.2778 23.2987 21.8725 23C21.4885 22.7013 21.1578 22.3387 20.8805 21.912C20.6245 21.4853 20.4965 21.08 20.4965 20.696C20.4965 20.0133 20.6778 19.48 21.0405 19.096C21.4032 18.712 21.9792 18.36 22.7685 18.04L26.0325 16.696C26.4592 16.5253 26.7045 16.376 26.7685 16.248C26.8538 16.12 26.9072 15.8427 26.9285 15.416L26.9925 13.368C27.0138 12.8133 26.8538 12.3333 26.5125 11.928C26.1925 11.5227 25.7232 11.32 25.1045 11.32C24.7845 11.32 24.4645 11.3733 24.1445 11.48C23.8245 11.5867 23.5578 11.7253 23.3445 11.896C23.2165 11.9813 23.1312 12.1093 23.0885 12.28C23.0458 12.4507 23.0245 12.632 23.0245 12.824C23.0245 12.9093 23.0245 13.0053 23.0245 13.112C23.0458 13.2187 23.0565 13.3147 23.0565 13.4C23.0565 13.5067 22.9178 13.656 22.6405 13.848C22.3845 14.0187 22.0858 14.1787 21.7445 14.328C21.4245 14.456 21.1578 14.52 20.9445 14.52C20.8378 14.52 20.7525 14.4987 20.6885 14.456C20.6245 14.392 20.5925 14.3173 20.5925 14.232C20.5925 13.8907 20.6992 13.528 20.9125 13.144C21.1472 12.7387 21.4672 12.3653 21.8725 12.024C22.3632 11.576 22.8965 11.1813 23.4725 10.84C24.0485 10.4987 24.6138 10.232 25.1685 10.04C25.7232 9.848 26.2138 9.752 26.6405 9.752C27.4085 9.752 28.0378 10.0293 28.5285 10.584C29.0405 11.1173 29.2858 11.7893 29.2645 12.6L29.1045 20.28C29.0832 20.728 29.1792 21.0907 29.3925 21.368C29.6272 21.6453 29.9152 21.784 30.2565 21.784C30.7898 21.784 31.1845 21.6667 31.4405 21.432C31.5472 21.3253 31.6325 21.272 31.6965 21.272C31.8032 21.272 31.8885 21.304 31.9525 21.368C32.0165 21.432 32.0485 21.5173 32.0485 21.624C32.0485 21.8587 31.9312 22.0933 31.6965 22.328C31.3552 22.6693 30.9818 22.936 30.5765 23.128C30.1925 23.3413 29.8298 23.448 29.4885 23.448C28.5072 23.448 27.7285 22.8933 27.1525 21.784H27.0565C26.3525 22.36 25.6805 22.776 25.0405 23.032C24.4005 23.3093 23.7392 23.448 23.0565 23.448ZM24.5605 21.912C24.9872 21.912 25.3498 21.848 25.6485 21.72C25.9472 21.5707 26.2138 21.3787 26.4485 21.144C26.5552 21.0373 26.6405 20.8987 26.7045 20.728C26.7898 20.536 26.8432 20.2373 26.8645 19.832L26.9285 18.264C26.9498 18.0293 26.9392 17.8587 26.8965 17.752C26.8538 17.6453 26.7685 17.592 26.6405 17.592C26.5978 17.592 26.5232 17.6027 26.4165 17.624C26.3098 17.6453 26.1712 17.688 26.0005 17.752C24.8698 18.1573 24.0805 18.584 23.6325 19.032C23.2058 19.4587 22.9925 19.8533 22.9925 20.216C22.9925 20.7707 23.1525 21.1973 23.4725 21.496C23.8138 21.7733 24.1765 21.912 24.5605 21.912ZM36.7018 23.448C36.0404 23.448 35.4218 23.3413 34.8458 23.128C34.2698 22.936 33.7791 22.6587 33.3738 22.296C33.2671 22.0613 33.1818 21.6667 33.1178 21.112C33.0751 20.5573 33.0431 20.0987 33.0218 19.736C33.0218 19.544 33.1604 19.448 33.4378 19.448C33.5231 19.448 33.5978 19.4693 33.6618 19.512C33.7471 19.5333 33.8004 19.5867 33.8218 19.672C34.0991 20.7173 34.5364 21.464 35.1338 21.912C35.7524 22.36 36.3711 22.584 36.9898 22.584C37.6084 22.584 38.1311 22.3813 38.5578 21.976C39.0058 21.5493 39.2298 21.0267 39.2298 20.408C39.2298 19.832 39.0378 19.3413 38.6538 18.936C38.2698 18.5093 37.5978 17.9973 36.6378 17.4C35.9124 16.952 35.3258 16.5253 34.8778 16.12C34.4298 15.7147 34.0991 15.2987 33.8858 14.872C33.6938 14.4453 33.5978 13.9653 33.5978 13.432C33.5978 12.7493 33.7578 12.1307 34.0778 11.576C34.3978 11.0213 34.8778 10.584 35.5178 10.264C36.1578 9.92267 36.9578 9.752 37.9178 9.752C38.5578 9.752 39.0911 9.816 39.5178 9.944C39.9444 10.072 40.2644 10.2107 40.4778 10.36C40.6484 10.5947 40.7871 10.968 40.8938 11.48C41.0218 11.9707 41.0858 12.44 41.0858 12.888C41.0858 13.0373 40.9791 13.112 40.7658 13.112C40.6378 13.112 40.5098 13.0907 40.3818 13.048C40.2751 12.984 40.2004 12.9093 40.1578 12.824C39.8804 12.12 39.5284 11.5867 39.1018 11.224C38.6964 10.84 38.1844 10.648 37.5658 10.648C37.0324 10.648 36.5524 10.808 36.1258 11.128C35.7204 11.448 35.5178 11.9173 35.5178 12.536C35.5178 13.0267 35.6671 13.464 35.9658 13.848C36.2858 14.232 36.8724 14.6693 37.7258 15.16C38.9631 15.864 39.8804 16.5253 40.4778 17.144C41.0964 17.7413 41.4058 18.5413 41.4058 19.544C41.4058 20.696 40.9684 21.6347 40.0938 22.36C39.2191 23.0853 38.0884 23.448 36.7018 23.448ZM43.6855 23.096C43.2588 23.096 43.0455 22.9787 43.0455 22.744C43.0455 22.552 43.2908 22.3813 43.7815 22.232C44.1015 22.1253 44.4002 21.9867 44.6775 21.816C44.9762 21.6453 45.1362 21.3467 45.1575 20.92V4.888C45.1575 4.312 45.0615 3.81067 44.8695 3.384C44.6775 2.936 44.3042 2.66933 43.7495 2.584C43.5575 2.54133 43.4615 2.392 43.4615 2.136C43.4615 1.944 43.5468 1.816 43.7175 1.752C44.0162 1.64533 44.3682 1.528 44.7735 1.4C45.2002 1.272 45.6375 1.13333 46.0855 0.983999C46.5335 0.813332 46.9282 0.653332 47.2695 0.504C47.3548 0.461332 47.4188 0.439999 47.4615 0.439999C47.5255 0.439999 47.5788 0.461332 47.6215 0.504C47.6642 0.546666 47.6855 0.599999 47.6855 0.664C47.6855 0.791999 47.6535 0.973332 47.5895 1.208C47.5468 1.44267 47.5042 1.848 47.4615 2.424C47.4188 3 47.3975 3.864 47.3975 5.016V10.584C47.3975 10.9253 47.4082 11.1707 47.4295 11.32C47.4722 11.4693 47.5362 11.6187 47.6215 11.768C47.9628 11.512 48.3788 11.2347 48.8695 10.936C49.3815 10.616 49.9468 10.3387 50.5655 10.104C51.1842 9.86933 51.8242 9.752 52.4855 9.752C53.5308 9.752 54.3948 10.168 55.0775 11C55.7815 11.8107 56.1335 12.8453 56.1335 14.104V20.824C56.1335 21.2507 56.2722 21.5707 56.5495 21.784C56.8268 21.976 57.1255 22.1253 57.4455 22.232C57.6802 22.296 57.8615 22.3707 57.9895 22.456C58.1175 22.52 58.1815 22.616 58.1815 22.744C58.1815 22.9787 57.9682 23.096 57.5415 23.096C57.1148 23.096 56.7842 23.0747 56.5495 23.032C56.3362 23.0107 56.1228 22.9893 55.9095 22.968C55.7175 22.9467 55.4295 22.936 55.0455 22.936C54.6828 22.936 54.3948 22.9467 54.1815 22.968C53.9682 22.9893 53.7442 23.0107 53.5095 23.032C53.2962 23.0747 52.9762 23.096 52.5495 23.096C52.1228 23.096 51.9095 22.9787 51.9095 22.744C51.9095 22.5947 51.9735 22.4987 52.1015 22.456C52.2295 22.392 52.4108 22.3173 52.6455 22.232C52.9655 22.1253 53.2535 21.976 53.5095 21.784C53.7655 21.5707 53.8935 21.2507 53.8935 20.824V14.296C53.8935 13.7627 53.7335 13.2827 53.4135 12.856C53.1148 12.408 52.7415 12.056 52.2935 11.8C51.8455 11.544 51.3868 11.416 50.9175 11.416C50.5122 11.416 50.0428 11.48 49.5095 11.608C48.9762 11.7147 48.5602 11.8853 48.2615 12.12C47.9202 12.3973 47.6855 12.6853 47.5575 12.984C47.4508 13.2827 47.3975 13.7627 47.3975 14.424V20.92C47.4188 21.3467 47.5468 21.6453 47.7815 21.816C48.0375 21.9867 48.3255 22.1253 48.6455 22.232C48.8802 22.296 49.0508 22.3707 49.1575 22.456C49.2855 22.52 49.3495 22.616 49.3495 22.744C49.3495 22.9787 49.1362 23.096 48.7095 23.096C48.2828 23.096 47.9628 23.0747 47.7495 23.032C47.5362 23.0107 47.3335 22.9893 47.1415 22.968C46.9495 22.9467 46.6615 22.936 46.2775 22.936C45.9148 22.936 45.6162 22.9467 45.3815 22.968C45.1682 22.9893 44.9335 23.0107 44.6775 23.032C44.4428 23.0747 44.1122 23.096 43.6855 23.096ZM67.4245 23.16C67.1472 23.16 66.9232 23.1173 66.7525 23.032C66.5818 22.968 66.4965 22.872 66.4965 22.744C66.4965 22.5307 66.8378 22.36 67.5205 22.232C68.3312 22.0827 68.8538 21.8373 69.0885 21.496C69.3445 21.1547 69.4725 20.6 69.4725 19.832V5.368C69.4725 4.62133 69.3872 4.09867 69.2165 3.8C69.0672 3.48 68.5872 3.24533 67.7765 3.096C67.0725 2.968 66.7205 2.776 66.7205 2.52C66.7205 2.392 66.7952 2.296 66.9445 2.232C67.0938 2.14666 67.3285 2.104 67.6485 2.104C68.2245 2.104 68.6725 2.11467 68.9925 2.136C69.3125 2.15733 69.6112 2.17867 69.8885 2.2C70.1658 2.2 70.5178 2.2 70.9445 2.2C71.3925 2.2 71.7552 2.2 72.0325 2.2C72.3312 2.17867 72.6405 2.15733 72.9605 2.136C73.3018 2.11467 73.7605 2.104 74.3365 2.104C74.9552 2.104 75.2645 2.24266 75.2645 2.52C75.2645 2.66933 75.1792 2.78667 75.0085 2.872C74.8378 2.95733 74.5712 3.032 74.2085 3.096C73.4192 3.24533 72.8538 3.512 72.5125 3.896C72.1925 4.25867 72.0325 4.74933 72.0325 5.368V11.672C72.0325 11.8 72.0858 11.8853 72.1925 11.928C72.2992 11.9493 72.3952 11.96 72.4805 11.96H84.3525C84.5018 11.96 84.5765 11.832 84.5765 11.576V5.336C84.5765 4.76 84.4272 4.28 84.1285 3.896C83.8298 3.512 83.2752 3.24533 82.4645 3.096C82.1018 3.032 81.8352 2.95733 81.6645 2.872C81.4938 2.78667 81.4085 2.66933 81.4085 2.52C81.4085 2.24266 81.7178 2.104 82.3365 2.104C82.9125 2.104 83.3818 2.11467 83.7445 2.136C84.1285 2.15733 84.4912 2.17867 84.8325 2.2C85.1738 2.2 85.5792 2.2 86.0485 2.2C86.4325 2.2 86.7312 2.2 86.9445 2.2C87.1578 2.17867 87.4032 2.15733 87.6805 2.136C87.9578 2.11467 88.3845 2.104 88.9605 2.104C89.2592 2.104 89.4832 2.14666 89.6325 2.232C89.8032 2.296 89.8885 2.392 89.8885 2.52C89.8885 2.776 89.5365 2.968 88.8325 3.096C88.0432 3.24533 87.5632 3.50133 87.3925 3.864C87.2218 4.22667 87.1365 4.71733 87.1365 5.336V19.8C87.1365 20.5893 87.2325 21.1547 87.4245 21.496C87.6378 21.8373 88.1392 22.0827 88.9285 22.232C89.6112 22.36 89.9525 22.5307 89.9525 22.744C89.9525 22.872 89.8672 22.968 89.6965 23.032C89.5258 23.1173 89.3018 23.16 89.0245 23.16C88.4485 23.16 88.0005 23.1387 87.6805 23.096C87.3605 23.0747 87.0618 23.0533 86.7845 23.032C86.5072 23.0107 86.1445 23 85.6965 23C85.2485 23 84.8752 23.0107 84.5765 23.032C84.2992 23.0533 83.9898 23.0747 83.6485 23.096C83.3072 23.1387 82.8485 23.16 82.2725 23.16C81.9952 23.16 81.7712 23.1173 81.6005 23.032C81.4298 22.968 81.3445 22.872 81.3445 22.744C81.3445 22.5947 81.4192 22.488 81.5685 22.424C81.7392 22.36 82.0058 22.296 82.3685 22.232C83.0512 22.104 83.5845 21.8587 83.9685 21.496C84.3738 21.112 84.5765 20.5787 84.5765 19.896V13.656C84.5765 13.5493 84.5765 13.4427 84.5765 13.336C84.5765 13.2293 84.5232 13.176 84.4165 13.176H72.1925C72.0858 13.176 72.0325 13.2933 72.0325 13.528V19.608C72.0325 20.2693 72.2778 20.8453 72.7685 21.336C73.2592 21.8053 73.8672 22.104 74.5925 22.232C74.9552 22.296 75.2112 22.36 75.3605 22.424C75.5312 22.488 75.6165 22.5947 75.6165 22.744C75.6165 22.872 75.5312 22.968 75.3605 23.032C75.1898 23.1173 74.9658 23.16 74.6885 23.16C74.1125 23.16 73.6325 23.1387 73.2485 23.096C72.8858 23.0747 72.5338 23.0533 72.1925 23.032C71.8512 23.0107 71.4352 23 70.9445 23C70.4965 23 70.1125 23.0107 69.7925 23.032C69.4938 23.0533 69.1632 23.0747 68.8005 23.096C68.4592 23.1387 68.0005 23.16 67.4245 23.16ZM98.7068 23.448C97.5121 23.448 96.4348 23.1707 95.4748 22.616C94.5148 22.0613 93.7468 21.304 93.1708 20.344C92.6161 19.3627 92.3388 18.2533 92.3388 17.016C92.3388 16.12 92.5094 15.2453 92.8508 14.392C93.2134 13.5387 93.7148 12.76 94.3548 12.056C94.9948 11.352 95.7414 10.7973 96.5948 10.392C97.4481 9.96533 98.3654 9.752 99.3468 9.752C100.584 9.752 101.693 10.0507 102.675 10.648C103.677 11.2453 104.467 12.0347 105.043 13.016C105.64 13.976 105.939 15.032 105.939 16.184C105.939 17.4213 105.661 18.5947 105.107 19.704C104.573 20.8133 103.773 21.72 102.707 22.424C101.64 23.1067 100.307 23.448 98.7068 23.448ZM99.3788 22.488C100.104 22.488 100.755 22.3493 101.331 22.072C101.907 21.7947 102.355 21.3467 102.675 20.728C102.931 20.2373 103.101 19.64 103.187 18.936C103.272 18.232 103.315 17.5707 103.315 16.952C103.315 15.928 103.123 14.9467 102.739 14.008C102.376 13.048 101.853 12.2693 101.171 11.672C100.509 11.0533 99.7201 10.744 98.8028 10.744C98.2268 10.744 97.7041 10.84 97.2348 11.032C96.7868 11.2027 96.3708 11.5333 95.9868 12.024C95.5601 12.5573 95.2828 13.208 95.1548 13.976C95.0268 14.744 94.9628 15.512 94.9628 16.28C94.9628 17.3253 95.1548 18.328 95.5388 19.288C95.9228 20.2267 96.4454 20.9947 97.1068 21.592C97.7681 22.1893 98.5254 22.488 99.3788 22.488ZM108.471 23.096C108.3 23.096 108.151 23.0747 108.023 23.032C107.895 22.9893 107.831 22.8933 107.831 22.744C107.831 22.5947 107.895 22.488 108.023 22.424C108.172 22.36 108.353 22.296 108.567 22.232C108.865 22.1253 109.164 22.008 109.463 21.88C109.783 21.7307 109.943 21.4427 109.943 21.016V14.136C109.943 13.56 109.879 13.0587 109.751 12.632C109.623 12.184 109.281 11.9173 108.727 11.832C108.641 11.8107 108.567 11.768 108.503 11.704C108.46 11.64 108.439 11.544 108.439 11.416C108.439 11.2027 108.524 11.0747 108.695 11.032C109.271 10.8827 109.729 10.7333 110.071 10.584C110.412 10.4133 110.711 10.232 110.967 10.04C111.244 9.82667 111.575 9.60267 111.959 9.368C112.001 9.34667 112.044 9.32533 112.087 9.304C112.129 9.26133 112.183 9.24 112.247 9.24C112.375 9.24 112.439 9.31467 112.439 9.464C112.439 9.61333 112.407 9.92267 112.343 10.392C112.3 10.84 112.279 11.2133 112.279 11.512C112.279 11.7253 112.3 11.8533 112.343 11.896H112.407C112.897 11.4267 113.537 10.9573 114.327 10.488C115.137 9.99733 116.161 9.752 117.399 9.752C118.167 9.752 118.807 9.92267 119.319 10.264C119.831 10.584 120.257 11.1493 120.599 11.96H120.695C121.377 11.3413 122.156 10.8187 123.031 10.392C123.905 9.96533 124.865 9.752 125.911 9.752C126.615 9.752 127.201 9.96533 127.671 10.392C128.14 10.8187 128.492 11.3733 128.727 12.056C128.983 12.7387 129.111 13.4533 129.111 14.2V21.016C129.111 21.4427 129.26 21.7307 129.559 21.88C129.857 22.008 130.167 22.1253 130.487 22.232C130.7 22.296 130.871 22.36 130.999 22.424C131.148 22.488 131.223 22.5947 131.223 22.744C131.223 22.872 131.169 22.9573 131.063 23C130.977 23.064 130.817 23.096 130.583 23.096C130.156 23.096 129.825 23.0747 129.591 23.032C129.356 23.0107 129.132 22.9893 128.919 22.968C128.727 22.9467 128.439 22.936 128.055 22.936C127.692 22.936 127.393 22.9467 127.159 22.968C126.924 22.9893 126.679 23.0107 126.423 23.032C126.167 23.0747 125.825 23.096 125.399 23.096C125.207 23.096 125.047 23.064 124.919 23C124.812 22.9573 124.759 22.872 124.759 22.744C124.759 22.5733 124.823 22.456 124.951 22.392C125.1 22.328 125.281 22.2747 125.495 22.232C125.836 22.1467 126.145 22.0293 126.423 21.88C126.721 21.7307 126.871 21.4427 126.871 21.016V14.296C126.871 13.784 126.753 13.304 126.519 12.856C126.284 12.3867 125.975 12.0027 125.591 11.704C125.207 11.4053 124.78 11.256 124.311 11.256C123.777 11.256 123.276 11.32 122.807 11.448C122.359 11.576 121.932 11.8 121.527 12.12C120.929 12.5893 120.631 13.3573 120.631 14.424V21.016C120.631 21.4427 120.791 21.7307 121.111 21.88C121.431 22.0293 121.751 22.1467 122.071 22.232C122.284 22.2747 122.455 22.3387 122.583 22.424C122.732 22.488 122.807 22.5947 122.807 22.744C122.807 22.872 122.753 22.9573 122.647 23C122.54 23.064 122.38 23.096 122.167 23.096C121.74 23.096 121.399 23.0747 121.143 23.032C120.908 23.0107 120.673 22.9893 120.439 22.968C120.225 22.9467 119.927 22.936 119.543 22.936C119.18 22.936 118.881 22.9467 118.647 22.968C118.412 22.9893 118.167 23.0107 117.911 23.032C117.655 23.0747 117.313 23.096 116.887 23.096C116.716 23.096 116.567 23.064 116.439 23C116.311 22.9573 116.247 22.872 116.247 22.744C116.247 22.5733 116.321 22.4667 116.47 22.424C116.641 22.36 116.812 22.296 116.983 22.232C117.303 22.1253 117.612 22.008 117.911 21.88C118.231 21.7307 118.391 21.4427 118.391 21.016V14.296C118.391 13.784 118.273 13.304 118.039 12.856C117.804 12.3867 117.495 12.0027 117.111 11.704C116.727 11.4053 116.3 11.256 115.831 11.256C115.297 11.256 114.796 11.32 114.327 11.448C113.879 11.576 113.452 11.8 113.047 12.12C112.471 12.5467 112.183 13.3147 112.183 14.424V21.016C112.183 21.4427 112.332 21.7307 112.631 21.88C112.929 22.008 113.239 22.1253 113.559 22.232C113.729 22.296 113.889 22.36 114.039 22.424C114.209 22.4667 114.295 22.5733 114.295 22.744C114.295 22.872 114.231 22.9573 114.103 23C113.996 23.064 113.847 23.096 113.655 23.096C113.228 23.096 112.887 23.0747 112.631 23.032C112.396 23.0107 112.172 22.9893 111.959 22.968C111.745 22.9467 111.447 22.936 111.062 22.936C110.7 22.936 110.401 22.9467 110.167 22.968C109.953 22.9893 109.719 23.0107 109.463 23.032C109.228 23.0747 108.897 23.096 108.471 23.096ZM138.785 23.48C137.611 23.48 136.587 23.192 135.713 22.616C134.838 22.04 134.155 21.2293 133.665 20.184C133.174 19.1173 132.929 17.8907 132.929 16.504C132.929 15.2667 133.206 14.1467 133.761 13.144C134.337 12.12 135.094 11.2987 136.033 10.68C136.971 10.0613 137.995 9.752 139.105 9.752C139.958 9.752 140.715 9.92267 141.377 10.264C142.038 10.6053 142.55 11.0853 142.913 11.704C143.297 12.3013 143.489 12.9947 143.489 13.784C143.489 14.4453 143.169 14.776 142.529 14.776H135.777C135.478 14.776 135.265 14.8613 135.137 15.032C135.03 15.1813 134.977 15.4907 134.977 15.96C134.977 16.984 135.201 17.9227 135.649 18.776C136.097 19.608 136.694 20.28 137.441 20.792C138.187 21.2827 139.009 21.528 139.905 21.528C140.545 21.528 141.121 21.4107 141.633 21.176C142.166 20.92 142.635 20.5573 143.041 20.088C143.126 19.9813 143.19 19.9173 143.233 19.896C143.275 19.8533 143.329 19.832 143.393 19.832C143.563 19.832 143.649 19.9387 143.649 20.152C143.649 20.5573 143.457 21.0053 143.073 21.496C142.753 21.9013 142.369 22.2533 141.921 22.552C141.473 22.8507 140.982 23.0747 140.449 23.224C139.915 23.3947 139.361 23.48 138.785 23.48ZM135.841 13.784H138.753C139.265 13.784 139.702 13.7733 140.065 13.752C140.427 13.7307 140.779 13.688 141.121 13.624C141.227 13.6027 141.291 13.5387 141.313 13.432C141.355 13.304 141.377 13.1333 141.377 12.92C141.377 12.3013 141.099 11.7787 140.545 11.352C140.011 10.904 139.371 10.68 138.625 10.68C138.134 10.68 137.643 10.8293 137.153 11.128C136.662 11.4053 136.257 11.7573 135.937 12.184C135.617 12.6107 135.457 13.0373 135.457 13.464C135.457 13.6773 135.585 13.784 135.841 13.784ZM162.716 23.224C162.502 23.224 162.022 23.2027 161.276 23.16C160.55 23.1173 159.708 23.0747 158.748 23.032C157.809 23.0107 156.913 23 156.06 23C155.633 23 155.27 23.0107 154.972 23.032C154.694 23.0533 154.385 23.0747 154.044 23.096C153.724 23.1387 153.276 23.16 152.7 23.16C152.422 23.16 152.198 23.128 152.028 23.064C151.857 23 151.772 22.8933 151.772 22.744C151.772 22.5733 151.857 22.4667 152.028 22.424C152.198 22.36 152.465 22.296 152.828 22.232C153.638 22.0827 154.193 21.8373 154.492 21.496C154.812 21.1547 154.972 20.6 154.972 19.832V5.432C154.972 4.664 154.812 4.12 154.492 3.8C154.193 3.48 153.638 3.24533 152.828 3.096C152.465 3.032 152.198 2.968 152.028 2.904C151.857 2.81867 151.772 2.69067 151.772 2.52C151.772 2.37067 151.857 2.264 152.028 2.2C152.198 2.136 152.422 2.104 152.7 2.104C153.254 2.104 153.692 2.11467 154.012 2.136C154.353 2.136 154.684 2.14667 155.004 2.168C155.324 2.168 155.74 2.168 156.252 2.168C156.593 2.168 157.02 2.15733 157.532 2.136C158.065 2.11467 158.609 2.08267 159.164 2.04C159.74 1.99733 160.252 1.96533 160.7 1.944C161.169 1.92267 161.51 1.912 161.724 1.912C163.9 1.912 165.756 2.17867 167.292 2.712C168.828 3.224 170.076 3.94933 171.036 4.888C171.996 5.80533 172.7 6.88267 173.148 8.12C173.617 9.336 173.852 10.648 173.852 12.056C173.852 13.592 173.564 15.032 172.988 16.376C172.412 17.72 171.612 18.9147 170.588 19.96C169.564 20.984 168.38 21.784 167.036 22.36C165.692 22.936 164.252 23.224 162.716 23.224ZM162.332 22.104C163.996 22.104 165.468 21.6987 166.748 20.888C168.028 20.0773 169.02 18.9573 169.724 17.528C170.449 16.0987 170.812 14.456 170.812 12.6C170.812 11.064 170.556 9.69867 170.044 8.504C169.532 7.288 168.849 6.27467 167.996 5.464C167.142 4.632 166.182 4.00267 165.116 3.576C164.049 3.128 162.972 2.904 161.884 2.904C160.966 2.904 160.177 2.936 159.516 3C158.876 3.04267 158.385 3.20267 158.044 3.48C157.702 3.75733 157.532 4.216 157.532 4.856V19.128C157.532 19.9813 157.766 20.6213 158.236 21.048C158.705 21.4747 159.302 21.7627 160.028 21.912C160.774 22.04 161.542 22.104 162.332 22.104ZM181.785 23.48C180.611 23.48 179.587 23.192 178.713 22.616C177.838 22.04 177.155 21.2293 176.665 20.184C176.174 19.1173 175.929 17.8907 175.929 16.504C175.929 15.2667 176.206 14.1467 176.761 13.144C177.337 12.12 178.094 11.2987 179.033 10.68C179.971 10.0613 180.995 9.752 182.105 9.752C182.958 9.752 183.715 9.92267 184.377 10.264C185.038 10.6053 185.55 11.0853 185.913 11.704C186.297 12.3013 186.489 12.9947 186.489 13.784C186.489 14.4453 186.169 14.776 185.529 14.776H178.777C178.478 14.776 178.265 14.8613 178.137 15.032C178.03 15.1813 177.977 15.4907 177.977 15.96C177.977 16.984 178.201 17.9227 178.649 18.776C179.097 19.608 179.694 20.28 180.441 20.792C181.187 21.2827 182.009 21.528 182.905 21.528C183.545 21.528 184.121 21.4107 184.633 21.176C185.166 20.92 185.635 20.5573 186.041 20.088C186.126 19.9813 186.19 19.9173 186.233 19.896C186.275 19.8533 186.329 19.832 186.393 19.832C186.563 19.832 186.649 19.9387 186.649 20.152C186.649 20.5573 186.457 21.0053 186.073 21.496C185.753 21.9013 185.369 22.2533 184.921 22.552C184.473 22.8507 183.982 23.0747 183.449 23.224C182.915 23.3947 182.361 23.48 181.785 23.48ZM178.841 13.784H181.753C182.265 13.784 182.702 13.7733 183.065 13.752C183.427 13.7307 183.779 13.688 184.121 13.624C184.227 13.6027 184.291 13.5387 184.313 13.432C184.355 13.304 184.377 13.1333 184.377 12.92C184.377 12.3013 184.099 11.7787 183.545 11.352C183.011 10.904 182.371 10.68 181.625 10.68C181.134 10.68 180.643 10.8293 180.153 11.128C179.662 11.4053 179.257 11.7573 178.937 12.184C178.617 12.6107 178.457 13.0373 178.457 13.464C178.457 13.6773 178.585 13.784 178.841 13.784ZM193.941 23.48C192.874 23.48 191.904 23.2133 191.029 22.68C190.176 22.1253 189.493 21.3787 188.981 20.44C188.49 19.48 188.245 18.4133 188.245 17.24C188.245 15.8533 188.544 14.5947 189.141 13.464C189.76 12.3333 190.581 11.4373 191.605 10.776C192.629 10.0933 193.76 9.752 194.997 9.752C196.384 9.752 197.6 10.1253 198.645 10.872C198.901 11.064 199.029 11.2667 199.029 11.48C199.029 11.6507 198.954 11.8427 198.805 12.056C198.656 12.2693 198.474 12.4507 198.261 12.6C198.048 12.728 197.845 12.792 197.653 12.792C197.546 12.792 197.44 12.76 197.333 12.696C197.226 12.6107 197.109 12.5253 196.981 12.44C196.512 12.0773 195.989 11.736 195.413 11.416C194.837 11.096 194.357 10.936 193.973 10.936C192.928 10.936 192.074 11.4267 191.413 12.408C190.773 13.368 190.453 14.6373 190.453 16.216C190.453 17.2187 190.666 18.1253 191.093 18.936C191.541 19.7467 192.128 20.3867 192.853 20.856C193.6 21.3253 194.421 21.56 195.317 21.56C195.936 21.56 196.469 21.464 196.917 21.272C197.365 21.0587 197.845 20.696 198.357 20.184C198.4 20.1413 198.453 20.1093 198.517 20.088C198.581 20.0453 198.634 20.024 198.677 20.024C198.912 20.024 199.029 20.1733 199.029 20.472C199.029 20.6 198.986 20.7493 198.901 20.92C198.837 21.0693 198.72 21.2507 198.549 21.464C198.208 21.8907 197.802 22.264 197.333 22.584C196.864 22.8827 196.341 23.1067 195.765 23.256C195.21 23.4053 194.602 23.48 193.941 23.48ZM207.019 23.448C205.825 23.448 204.747 23.1707 203.787 22.616C202.827 22.0613 202.059 21.304 201.483 20.344C200.929 19.3627 200.651 18.2533 200.651 17.016C200.651 16.12 200.822 15.2453 201.163 14.392C201.526 13.5387 202.027 12.76 202.667 12.056C203.307 11.352 204.054 10.7973 204.907 10.392C205.761 9.96533 206.678 9.752 207.659 9.752C208.897 9.752 210.006 10.0507 210.987 10.648C211.99 11.2453 212.779 12.0347 213.355 13.016C213.953 13.976 214.251 15.032 214.251 16.184C214.251 17.4213 213.974 18.5947 213.419 19.704C212.886 20.8133 212.086 21.72 211.019 22.424C209.953 23.1067 208.619 23.448 207.019 23.448ZM207.691 22.488C208.417 22.488 209.067 22.3493 209.643 22.072C210.219 21.7947 210.667 21.3467 210.987 20.728C211.243 20.2373 211.414 19.64 211.499 18.936C211.585 18.232 211.627 17.5707 211.627 16.952C211.627 15.928 211.435 14.9467 211.051 14.008C210.689 13.048 210.166 12.2693 209.483 11.672C208.822 11.0533 208.033 10.744 207.115 10.744C206.539 10.744 206.017 10.84 205.547 11.032C205.099 11.2027 204.683 11.5333 204.299 12.024C203.873 12.5573 203.595 13.208 203.467 13.976C203.339 14.744 203.275 15.512 203.275 16.28C203.275 17.3253 203.467 18.328 203.851 19.288C204.235 20.2267 204.758 20.9947 205.419 21.592C206.081 22.1893 206.838 22.488 207.691 22.488ZM216.943 23.096C216.73 23.096 216.57 23.064 216.463 23C216.356 22.9573 216.303 22.872 216.303 22.744C216.303 22.5733 216.367 22.4667 216.495 22.424C216.623 22.36 216.804 22.296 217.039 22.232C217.444 22.1253 217.743 21.976 217.935 21.784C218.148 21.5707 218.255 21.3147 218.255 21.016V14.136C218.255 13.56 218.17 13.0587 217.999 12.632C217.828 12.2053 217.476 11.9387 216.943 11.832C216.858 11.8107 216.783 11.7573 216.719 11.672C216.655 11.5867 216.623 11.5013 216.623 11.416C216.623 11.2027 216.719 11.0747 216.911 11.032C217.466 10.8613 218.042 10.616 218.639 10.296C219.258 9.95467 219.738 9.67733 220.079 9.464C220.207 9.37867 220.303 9.32533 220.367 9.304C220.452 9.26133 220.516 9.24 220.559 9.24C220.666 9.24 220.719 9.31467 220.719 9.464C220.719 9.528 220.708 9.688 220.687 9.944C220.687 10.2 220.676 10.4987 220.655 10.84C220.655 11.1813 220.644 11.5227 220.623 11.864C220.623 11.9067 220.644 11.928 220.687 11.928C221.028 11.5013 221.402 11.128 221.807 10.808C222.234 10.488 222.66 10.232 223.087 10.04C223.535 9.848 223.962 9.752 224.367 9.752C224.815 9.752 225.178 9.848 225.455 10.04C225.754 10.232 225.903 10.4773 225.903 10.776C225.903 10.9893 225.839 11.224 225.711 11.48C225.604 11.736 225.455 11.96 225.263 12.152C225.071 12.344 224.868 12.44 224.655 12.44C224.527 12.44 224.388 12.4187 224.239 12.376C224.09 12.312 223.93 12.2373 223.759 12.152C223.588 12.088 223.418 12.024 223.247 11.96C223.076 11.896 222.906 11.864 222.735 11.864C222.223 11.864 221.722 12.0453 221.231 12.408C220.762 12.7707 220.527 13.4853 220.527 14.552V21.016C220.527 21.2933 220.676 21.528 220.975 21.72C221.274 21.8907 221.69 22.0613 222.223 22.232C222.458 22.296 222.639 22.36 222.767 22.424C222.895 22.488 222.959 22.5947 222.959 22.744C222.959 22.9787 222.746 23.096 222.319 23.096C221.679 23.096 221.188 23.064 220.847 23C220.527 22.9573 220.09 22.936 219.535 22.936C219.172 22.936 218.874 22.9467 218.639 22.968C218.426 22.9893 218.191 23.0107 217.935 23.032C217.7 23.0747 217.37 23.096 216.943 23.096ZM230.671 23.448C230.009 23.448 229.391 23.3413 228.815 23.128C228.239 22.936 227.748 22.6587 227.343 22.296C227.236 22.0613 227.151 21.6667 227.087 21.112C227.044 20.5573 227.012 20.0987 226.991 19.736C226.991 19.544 227.129 19.448 227.407 19.448C227.492 19.448 227.567 19.4693 227.631 19.512C227.716 19.5333 227.769 19.5867 227.791 19.672C228.068 20.7173 228.505 21.464 229.103 21.912C229.721 22.36 230.34 22.584 230.959 22.584C231.577 22.584 232.1 22.3813 232.527 21.976C232.975 21.5493 233.199 21.0267 233.199 20.408C233.199 19.832 233.007 19.3413 232.623 18.936C232.239 18.5093 231.567 17.9973 230.607 17.4C229.881 16.952 229.295 16.5253 228.847 16.12C228.399 15.7147 228.068 15.2987 227.855 14.872C227.663 14.4453 227.567 13.9653 227.567 13.432C227.567 12.7493 227.727 12.1307 228.047 11.576C228.367 11.0213 228.847 10.584 229.487 10.264C230.127 9.92267 230.927 9.752 231.887 9.752C232.527 9.752 233.06 9.816 233.487 9.944C233.913 10.072 234.233 10.2107 234.447 10.36C234.617 10.5947 234.756 10.968 234.863 11.48C234.991 11.9707 235.055 12.44 235.055 12.888C235.055 13.0373 234.948 13.112 234.735 13.112C234.607 13.112 234.479 13.0907 234.351 13.048C234.244 12.984 234.169 12.9093 234.127 12.824C233.849 12.12 233.497 11.5867 233.071 11.224C232.665 10.84 232.153 10.648 231.535 10.648C231.001 10.648 230.521 10.808 230.095 11.128C229.689 11.448 229.487 11.9173 229.487 12.536C229.487 13.0267 229.636 13.464 229.935 13.848C230.255 14.232 230.841 14.6693 231.695 15.16C232.932 15.864 233.849 16.5253 234.447 17.144C235.065 17.7413 235.375 18.5413 235.375 19.544C235.375 20.696 234.937 21.6347 234.062 22.36C233.188 23.0853 232.057 23.448 230.671 23.448Z" fill="black"/>
<path d="M246.493 23.448C246.023 23.448 245.607 23.2773 245.245 22.936C244.903 22.5733 244.733 22.1573 244.733 21.688C244.733 21.1973 244.903 20.7813 245.245 20.44C245.607 20.0987 246.023 19.928 246.493 19.928C246.983 19.928 247.399 20.0987 247.741 20.44C248.082 20.7813 248.253 21.1973 248.253 21.688C248.253 22.1573 248.082 22.5733 247.741 22.936C247.399 23.2773 246.983 23.448 246.493 23.448Z" fill="#950000" fill-opacity="0.83"/>
</g>
<defs>
<filter id="filter0_d_7_3" x="0" y="0.440002" width="252.253" height="31.04" filterUnits="userSpaceOnUse" color-interpolation-filters="sRGB">
<feFlood flood-opacity="0" result="BackgroundImageFix"/>
<feColorMatrix in="SourceAlpha" type="matrix" values="0 0 0 0 0 0 0 0 0 0 0 0 0 0 0 0 0 0 127 0" result="hardAlpha"/>
<feOffset dy="4"/>
<feGaussianBlur stdDeviation="2"/>
<feComposite in2="hardAlpha" operator="out"/>
<feColorMatrix type="matrix" values="0 0 0 0 0.444336 0 0 0 0 0 0 0 0 0 0 0 0 0 0.43 0"/>
<feBlend mode="normal" in2="BackgroundImageFix" result="effect1_dropShadow_7_3"/>
<feBlend mode="normal" in="SourceGraphic" in2="effect1_dropShadow_7_3" result="shape"/>
</filter>
</defs>
</svg>
